<?xml version="1.0" encoding="UTF-8"?><svg id="b" xmlns="http://www.w3.org/2000/svg" xmlns:xlink="http://www.w3.org/1999/xlink" viewBox="0 0 490.16 724.99"><defs><linearGradient id="e" x1="-36.44" y1="137.84" x2="263.56" y2="137.84" gradientTransform="translate(293.78 214.22) rotate(45)" gradientUnits="userSpaceOnUse"><stop offset="0" stop-color="#2943db"/><stop offset="1" stop-color="#71c6f6"/></linearGradient><linearGradient id="f" x1="-62.4" y1="195.81" x2="-62.4" y2="-212.37" gradientTransform="translate(293.78 214.22) rotate(45)" gradientUnits="userSpaceOnUse"><stop offset="0" stop-color="#71c6f6"/><stop offset=".11" stop-color="#61aaf0"/><stop offset=".29" stop-color="#4d85e8"/><stop offset=".48" stop-color="#3d68e2"/><stop offset=".65" stop-color="#3253de"/><stop offset=".83" stop-color="#2b47db"/><stop offset="1" stop-color="#2943db"/></linearGradient><linearGradient id="g" x1="-600.57" y1="373.3" x2="-504.86" y2="469.01" gradientTransform="translate(896.39 -174.38)" gradientUnits="userSpaceOnUse"><stop offset="0" stop-color="#71c6f6"/><stop offset=".11" stop-color="#61aaf0"/><stop offset=".3" stop-color="#4d85e8"/><stop offset=".48" stop-color="#3d68e2"/><stop offset=".65" stop-color="#3253de"/><stop offset=".83" stop-color="#2b47db"/><stop offset="1" stop-color="#2943db"/></linearGradient></defs><g id="c"><g id="d"><g><g><g><path d="M47.55,658.95c-4.71,2.58-10.58,3.88-17.6,3.88-9.06,0-16.32-3.03-21.78-9.09-5.45-6.06-8.18-14.01-8.18-23.85,0-10.58,3.07-19.13,9.2-25.65,6.13-6.52,13.91-9.78,23.33-9.78,6.04,0,11.05,.91,15.02,2.72v8.26c-4.56-2.64-9.6-3.97-15.11-3.97-7.32,0-13.25,2.54-17.8,7.61-4.55,5.07-6.82,11.86-6.82,20.34s2.12,14.48,6.38,19.26c4.25,4.78,9.83,7.17,16.73,7.17,6.4,0,11.94-1.48,16.62-4.43v7.52Z" style="fill:#2943db;"/><path d="M114.4,661.72h-8.27l-6.75-18.55h-27.02l-6.36,18.55h-8.31l24.44-66.16h7.73l24.53,66.16Zm-17.46-25.51l-10-28.19c-.33-.92-.65-2.4-.98-4.43h-.18c-.29,1.88-.64,3.35-1.02,4.43l-9.91,28.19h22.09Z" style="fill:#2943db;"/><path d="M125.36,659.04v-9.13c1.01,.92,2.21,1.75,3.62,2.49,1.41,.74,2.89,1.36,4.45,1.87,1.55,.51,3.12,.9,4.69,1.18,1.57,.28,3.02,.42,4.36,.42,4.59,0,8.02-.88,10.29-2.65,2.27-1.77,3.4-4.31,3.4-7.64,0-1.78-.38-3.34-1.13-4.66-.76-1.32-1.8-2.53-3.13-3.62-1.33-1.09-2.91-2.14-4.73-3.14-1.82-1-3.79-2.05-5.89-3.16-2.22-1.17-4.3-2.35-6.22-3.55s-3.6-2.52-5.02-3.97c-1.42-1.45-2.54-3.08-3.36-4.91s-1.22-3.97-1.22-6.44c0-3.01,.64-5.64,1.91-7.87,1.27-2.23,2.95-4.07,5.02-5.51,2.07-1.45,4.44-2.52,7.09-3.23,2.65-.71,5.36-1.06,8.11-1.06,6.28,0,10.86,.78,13.73,2.35v8.72c-3.76-2.71-8.59-4.06-14.49-4.06-1.63,0-3.26,.18-4.89,.53-1.63,.35-3.08,.93-4.36,1.73-1.27,.8-2.31,1.83-3.11,3.09-.8,1.26-1.2,2.8-1.2,4.61,0,1.69,.3,3.15,.91,4.38,.61,1.23,1.5,2.35,2.69,3.37,1.18,1.01,2.63,2,4.33,2.95,1.7,.95,3.67,2,5.89,3.14,2.28,1.17,4.44,2.4,6.49,3.69s3.84,2.72,5.38,4.29c1.54,1.57,2.76,3.31,3.67,5.21,.9,1.91,1.36,4.09,1.36,6.55,0,3.26-.62,6.02-1.84,8.28-1.23,2.26-2.89,4.1-4.98,5.51-2.09,1.42-4.5,2.44-7.22,3.07-2.72,.63-5.6,.95-8.62,.95-1.01,0-2.25-.08-3.73-.25-1.48-.17-2.99-.42-4.53-.74s-3-.72-4.38-1.2-2.48-1.01-3.31-1.59Z" style="fill:#2943db;"/><path d="M229.14,661.72h-7.46v-30.17h-32.97v30.17h-7.47v-66.16h7.47v29.02h32.97v-29.02h7.46v66.16Z" style="fill:#2943db;"/><path d="M282.75,602.57h-24.89v22.88h23.02v6.97h-23.02v29.3h-7.47v-66.16h32.35v7.01Z" style="fill:#2943db;"/><path d="M332.45,661.72h-33.06v-66.16h7.47v59.14h25.6v7.01Z" style="fill:#2943db;"/><path d="M369.36,662.83c-9.04,0-16.27-3.09-21.71-9.27-5.44-6.18-8.15-14.22-8.15-24.13,0-10.64,2.77-19.13,8.31-25.47,5.54-6.34,13.08-9.5,22.62-9.5,8.8,0,15.89,3.08,21.27,9.23,5.38,6.15,8.06,14.19,8.06,24.13,0,10.8-2.75,19.33-8.27,25.6-5.51,6.27-12.89,9.41-22.13,9.41Zm.53-61.36c-6.7,0-12.13,2.51-16.31,7.52-4.18,5.01-6.27,11.6-6.27,19.75s2.04,14.71,6.11,19.68,9.38,7.45,15.93,7.45c6.99,0,12.5-2.37,16.53-7.1s6.04-11.36,6.04-19.88-1.96-15.49-5.87-20.25c-3.91-4.77-9.3-7.15-16.18-7.15Z" style="fill:#2943db;"/><path d="M490.16,595.56l-18,66.16h-8.75l-13.11-48.35c-.56-2.06-.9-4.31-1.02-6.74h-.18c-.18,2.28-.56,4.49-1.15,6.64l-13.2,48.44h-8.67l-18.66-66.16h8.22l13.55,50.75c.56,2.12,.92,4.34,1.07,6.64h.22c.15-1.63,.61-3.84,1.38-6.64l14.09-50.75h7.15l13.51,51.12c.47,1.75,.83,3.81,1.07,6.18h.18c.12-1.6,.52-3.72,1.2-6.37l13.02-50.93h8.09Z" style="fill:#2943db;"/></g><g><path d="M3.17,724.41v-34.76H12.77c12.25,0,18.37,5.65,18.37,16.94,0,5.37-1.7,9.68-5.1,12.93-3.4,3.26-7.96,4.89-13.66,4.89H3.17Zm4.07-31.08v27.4h5.19c4.55,0,8.1-1.22,10.64-3.66,2.54-2.44,3.81-5.9,3.81-10.38,0-8.91-4.74-13.36-14.21-13.36H7.25Z" style="fill:#4c83e8;"/><path d="M48.77,724.41h-4.07v-34.76h4.07v34.76Z" style="fill:#4c83e8;"/><path d="M90.61,722.03c-3.49,1.97-7.37,2.96-11.64,2.96-4.96,0-8.98-1.6-12.04-4.8-3.06-3.2-4.59-7.43-4.59-12.7s1.7-9.8,5.1-13.25c3.4-3.45,7.71-5.17,12.93-5.17,3.78,0,6.96,.61,9.53,1.84v4.51c-2.81-1.78-6.14-2.67-9.99-2.67s-7.09,1.34-9.58,4.02-3.73,6.16-3.73,10.42,1.15,7.85,3.47,10.36,5.45,3.77,9.41,3.77c2.72,0,5.07-.54,7.05-1.62v-9.75h-7.61v-3.68h11.69v15.76Z" style="fill:#4c83e8;"/><path d="M109.46,724.41h-4.07v-34.76h4.07v34.76Z" style="fill:#4c83e8;"/><path d="M145.87,693.33h-10.03v31.08h-4.07v-31.08h-10.01v-3.68h24.12v3.68Z" style="fill:#4c83e8;"/><path d="M181.55,724.41h-4.51l-3.69-9.75h-14.74l-3.47,9.75h-4.53l13.33-34.76h4.22l13.38,34.76Zm-9.53-13.41l-5.45-14.81c-.18-.49-.36-1.26-.53-2.33h-.1c-.16,.99-.35,1.76-.56,2.33l-5.41,14.81h12.05Z" style="fill:#4c83e8;"/><path d="M211.41,724.41h-18.04v-34.76h4.07v31.08h13.96v3.68Z" style="fill:#4c83e8;"/><path d="M246.09,711.27v13.14h-4.07v-34.76h9.55c3.72,0,6.6,.91,8.64,2.71,2.04,1.81,3.06,4.36,3.06,7.66s-1.14,6-3.4,8.1c-2.27,2.1-5.34,3.15-9.2,3.15h-4.58Zm0-17.94v14.25h4.26c2.81,0,4.96-.64,6.44-1.93,1.48-1.28,2.22-3.1,2.22-5.44,0-4.59-2.71-6.89-8.14-6.89h-4.78Z" style="fill:#4c83e8;"/><path d="M300.05,724.41h-4.51l-3.69-9.75h-14.74l-3.47,9.75h-4.53l13.34-34.76h4.22l13.38,34.76Zm-9.53-13.41l-5.45-14.81c-.18-.49-.35-1.26-.53-2.33h-.1c-.16,.99-.35,1.76-.55,2.33l-5.41,14.81h12.05Z" style="fill:#4c83e8;"/><path d="M331.07,689.65l-11.46,21.92v12.85h-4.07v-12.75l-11.18-22.01h4.63l7.78,15.71c.1,.19,.38,.91,.85,2.13h.07c.16-.55,.47-1.26,.92-2.13l8.15-15.71h4.31Z" style="fill:#4c83e8;"/><path d="M378.08,724.41h-4.05v-23.32c0-1.84,.11-4.1,.34-6.76h-.1c-.39,1.57-.74,2.69-1.04,3.37l-11.88,26.72h-1.98l-11.86-26.52c-.34-.78-.69-1.96-1.04-3.56h-.1c.13,1.39,.19,3.66,.19,6.81v23.27h-3.93v-34.76h5.38l10.67,24.24c.83,1.86,1.36,3.25,1.6,4.17h.15c.7-1.91,1.25-3.33,1.67-4.27l10.89-24.15h5.09v34.76Z" style="fill:#4c83e8;"/><path d="M412.35,724.41h-18.42v-34.76h17.65v3.68h-13.57v11.56h12.56v3.66h-12.56v12.17h14.35v3.68Z" style="fill:#4c83e8;"/><path d="M453.77,724.41h-4.99l-17.89-27.71c-.45-.7-.83-1.42-1.12-2.18h-.15c.13,.74,.2,2.34,.2,4.78v25.11h-4.07v-34.76h5.28l17.41,27.27c.73,1.13,1.2,1.91,1.41,2.33h.1c-.16-1-.24-2.71-.24-5.11v-24.48h4.07v34.76Z" style="fill:#4c83e8;"/><path d="M490.16,693.33h-10.04v31.08h-4.07v-31.08h-10.01v-3.68h24.12v3.68Z" style="fill:#4c83e8;"/></g></g><g><g><path d="M347.32,391.99L205.89,250.56h0c-39.05,39.05-39.05,102.37,0,141.42l141.42,141.42h0c39.05-39.05,39.05-102.37,0-141.42Z" style="fill:url(#e);"/><path d="M205.89,250.56h0S346.1,110.36,346.1,110.36l36.72,36.72c1.81-1.81,2.93-4.31,2.93-7.07V10c0-5.52-4.48-10-10-10H245.75c-2.76,0-5.26,1.12-7.07,2.93l36.72,36.72L135.33,179.71s-.09,.1-.14,.15h0s0,0,0,0c-39.05,39.05-39.05,102.37,0,141.42l70.71,70.71c-39.05-39.05-39.05-102.37,0-141.42Z" style="fill:url(#f);"/></g><path d="M354.03,182.13h50v100H254.03c0-55.19,44.81-100,100-100Z" transform="translate(725.84 163.61) rotate(135)" style="fill:url(#g);"/></g></g></g></g></svg>