<svg xmlns="http://www.w3.org/2000/svg" viewBox="0 0 550.49 368.06"><g id="Layer_2" data-name="Layer 2"><g id="Layer_1-2" data-name="Layer 1"><path d="M20.49,0h510a20,20,0,0,1,20,20V65a0,0,0,0,1,0,0H.49a0,0,0,0,1,0,0V20A20,20,0,0,1,20.49,0Z" style="fill:#333"/><rect x="0.49" y="142.62" width="140" height="65" style="fill:#333"/><rect x="210.49" y="142.62" width="340" height="65" style="fill:#333"/><path d="M84.15,315.6a5.21,5.21,0,0,0-1.65-1.11,5.11,5.11,0,0,0-2.1-.41,5.22,5.22,0,0,0-2.13.41,4.82,4.82,0,0,0-1.63,1.13,5.32,5.32,0,0,0-1.07,1.66,6.27,6.27,0,0,0-.47,2H85.74a6.09,6.09,0,0,0-.48-2A5.08,5.08,0,0,0,84.15,315.6Z" style="fill:#333"/><path d="M0,285.25v45a20,20,0,0,0,20,20H140v-65Zm30.45,22.38H17v8.13H28.8v2.87H17v11.72h-3.4V304.76H30.45Zm6.48,22.72h-3V311.82h3Zm0-21.86h-3v-3.73h3ZM57,330.35H54V317.8a3.68,3.68,0,0,0-1-2.72,3.73,3.73,0,0,0-2.76-1,6.16,6.16,0,0,0-2.42.43,4.47,4.47,0,0,0-1.7,1.21,5.47,5.47,0,0,0-1,1.85,7.46,7.46,0,0,0-.34,2.31v10.47H41.66V311.82h2.87v2.94h.07a6.42,6.42,0,0,1,6-3.37,8.14,8.14,0,0,1,3.05.5,4.94,4.94,0,0,1,2,1.4,5.28,5.28,0,0,1,1.06,2.13,11.62,11.62,0,0,1,.3,2.74Zm12.51-15.84H65.82V326a3.27,3.27,0,0,0,.09.86.86.86,0,0,0,.34.5,1.56,1.56,0,0,0,.7.24c.3,0,.68.05,1.16.05h1.4v2.69H67.18a11.56,11.56,0,0,1-2-.16,3,3,0,0,1-1.37-.6,2.56,2.56,0,0,1-.77-1.21,7.33,7.33,0,0,1-.25-2.08V314.51H59.62v-2.69h3.15v-5.56h3v5.56h3.69Zm5.88,9.8a5.13,5.13,0,0,0,2.86,3.28,6.41,6.41,0,0,0,2.62.5,5.24,5.24,0,0,0,3.17-.9,4.26,4.26,0,0,0,1.63-2.72h3A7.38,7.38,0,0,1,86,329.16a8.39,8.39,0,0,1-5.24,1.58,9.48,9.48,0,0,1-3.85-.72,7.45,7.45,0,0,1-2.74-2,8.53,8.53,0,0,1-1.67-3.09,14.87,14.87,0,0,1-.63-3.9,11.14,11.14,0,0,1,.65-3.87,9.21,9.21,0,0,1,1.81-3.05,8.32,8.32,0,0,1,2.76-2,8.54,8.54,0,0,1,3.49-.71,7.64,7.64,0,0,1,4.11,1A8.1,8.1,0,0,1,87.3,315a10.42,10.42,0,0,1,1.37,3.44A14.65,14.65,0,0,1,89,322H75.1A7.33,7.33,0,0,0,75.39,324.31Zm30,4.57a8,8,0,0,1-5.61,1.86,9.67,9.67,0,0,1-3.74-.68,7.29,7.29,0,0,1-2.73-1.93,8.4,8.4,0,0,1-1.65-3,12.48,12.48,0,0,1-.55-3.81,13.5,13.5,0,0,1,.54-3.89,9,9,0,0,1,1.63-3.16A7.66,7.66,0,0,1,96,312.16a9,9,0,0,1,3.83-.77,11.22,11.22,0,0,1,3,.37,7.36,7.36,0,0,1,2.44,1.17,6.57,6.57,0,0,1,1.74,2,7.4,7.4,0,0,1,.86,2.85H104.7a4.24,4.24,0,0,0-4.59-3.69,5.62,5.62,0,0,0-2.75.61,4.78,4.78,0,0,0-1.78,1.61,6.82,6.82,0,0,0-1,2.31,12.64,12.64,0,0,0-.29,2.71,10.38,10.38,0,0,0,.31,2.5A6.57,6.57,0,0,0,95.6,326a4.85,4.85,0,0,0,1.68,1.53,5.1,5.1,0,0,0,2.48.57,5,5,0,0,0,3.53-1.18,5.44,5.44,0,0,0,1.56-3.34H108A8.52,8.52,0,0,1,105.4,328.88Zm21.31,1.47h-3V317.8a3.68,3.68,0,0,0-1-2.72,3.73,3.73,0,0,0-2.76-1,6.16,6.16,0,0,0-2.42.43,4.47,4.47,0,0,0-1.7,1.21,5.32,5.32,0,0,0-1,1.85,7.77,7.77,0,0,0-.34,2.31v10.47h-3V304.76h3v9.78h.08a3.92,3.92,0,0,1,1-1.45,5.75,5.75,0,0,1,1.45-1,7.6,7.6,0,0,1,1.69-.55,8.4,8.4,0,0,1,1.7-.18,8.08,8.08,0,0,1,3,.5,4.87,4.87,0,0,1,2,1.4,5,5,0,0,1,1.06,2.13,11.1,11.1,0,0,1,.31,2.74Z" style="fill:#333"/><path d="M222,350h-9.25a2,2,0,0,1-2.29-2.29V275.76a2,2,0,0,1,2.29-2.28H222a2,2,0,0,1,2.28,2.28V347.7A2,2,0,0,1,222,350Z" style="fill:#333"/><path d="M256.31,350H253.7q-8.59,0-13.28-4.57t-4.68-13.17v-20q0-8.6,4.68-13.17t13.28-4.57h25.14c1.59,0,2.39.77,2.39,2.29V347.7c0,1.53-.8,2.29-2.39,2.29H269.7a2,2,0,0,1-2.29-2.29v-3.59H267a8.28,8.28,0,0,1-4.25,4.41A14.58,14.58,0,0,1,256.31,350Zm11.1-20.24v-22.1c0-.79-.43-1.19-1.31-1.19H255.87q-3.48,0-4.89,1.47c-.95,1-1.42,2.63-1.42,4.95V331.6q0,3.48,1.42,4.95t4.89,1.47h4Q267.42,338,267.41,329.75Z" style="fill:#333"/><path d="M312.8,347.49h-3.6q-8.37,0-12.68-4.57t-4.29-13.17V312.22q0-8.6,4.67-13.17t13.28-4.57h25.14c1.6,0,2.4.77,2.4,2.29v53.66q0,8.49-4.74,13.06t-13.22,4.57h-20.9a2.54,2.54,0,0,1-1.79-.49,2.34,2.34,0,0,1-.49-1.69v-7.51a2,2,0,0,1,2.28-2.28h18.62q3.48,0,4.95-1.47t1.47-4.85V341.5h-.44a8.45,8.45,0,0,1-4.24,4.46A14.17,14.17,0,0,1,312.8,347.49Zm11.1-20.25V307.65c0-.79-.44-1.19-1.31-1.19H312.36c-2.32,0-4,.49-4.9,1.47s-1.41,2.63-1.41,4.95v16.21q0,3.5,1.41,4.9c.94.95,2.58,1.42,4.9,1.42h4Q323.89,335.41,323.9,327.24Z" style="fill:#333"/><path d="M370.7,350H350c-1.46,0-2.18-.76-2.18-2.29v-7a2.56,2.56,0,0,1,.44-1.69,2.33,2.33,0,0,1,1.74-.49h18.17q5.34,0,5.34-3.26v-.55q0-2.61-4.47-5l-10.77-6a24.75,24.75,0,0,1-8.16-6.09,13,13,0,0,1-2.62-8.38q0-7.62,4-11.21t12.63-3.6h18.17c1.45,0,2.18.77,2.18,2.29v7.07a2.56,2.56,0,0,1-.44,1.69,2.3,2.3,0,0,1-1.74.49H367.21q-5.32,0-5.33,2.72v.55q0,2.38,4.68,4.89l11,6.53q5.65,3.06,7.95,6.26a14.26,14.26,0,0,1,2.28,8.44Q387.78,350,370.7,350Z" style="fill:#333"/><path d="M408.9,350h-9.25a2,2,0,0,1-2.29-2.29V275.76a2,2,0,0,1,2.29-2.28h9.25a2,2,0,0,1,2.28,2.28v24.6h.44q2.38-5.88,10.66-5.88h3.49q17.09,0,17.08,17.74V347.7c0,1.53-.8,2.29-2.39,2.29h-9.14A2,2,0,0,1,429,347.7V312.88c0-2.32-.49-4-1.47-4.95s-2.63-1.47-4.95-1.47h-3.92q-7.5,0-7.51,8.27v33A2,2,0,0,1,408.9,350Z" style="fill:#333"/><path d="M454.82,285.12v-9.47a1.92,1.92,0,0,1,2.18-2.17h9.47c1.45,0,2.18.69,2.18,2.07v9.57a1.93,1.93,0,0,1-2.18,2.18H457A1.93,1.93,0,0,1,454.82,285.12Zm0,62.58V296.77c0-1.52.73-2.29,2.18-2.29h9.36a2,2,0,0,1,2.29,2.29V347.7a1.81,1.81,0,0,1-2.18,2.29h-9.36A2,2,0,0,1,454.82,347.7Z" style="fill:#333"/><path d="M492.7,364.79h-9.25c-1.53,0-2.29-.72-2.29-2.17V296.77a2,2,0,0,1,2.29-2.29h9.25a2,2,0,0,1,2.28,2.29v3.59h.44a8.26,8.26,0,0,1,4.24-4.41,14.66,14.66,0,0,1,6.43-1.47h4.46q8.38,0,12.68,4.57t4.3,13.17v20q0,8.6-4.3,13.17T510.55,350h-4.46a14.66,14.66,0,0,1-6.43-1.47,8.26,8.26,0,0,1-4.24-4.41H495v18.51C495,364.07,494.22,364.79,492.7,364.79ZM502.49,338h4.79c2.32,0,4-.49,5-1.47s1.47-2.63,1.47-4.95V312.88c0-2.32-.49-4-1.47-4.95s-2.64-1.47-5-1.47h-4.79q-7.5,0-7.51,8.27v15Q495,338,502.49,338Z" style="fill:#333"/><path d="M550.49,334.32V347.7c0,1.53-.69,2.29-2.07,2.29h-9.68c-1.46,0-2.18-.76-2.18-2.29V334.43a1.93,1.93,0,0,1,2.18-2.18h9.68A1.83,1.83,0,0,1,550.49,334.32Z" style="fill:#333"/></g></g></svg>